<svg width="16" height="15" viewBox="0 0 16 15" fill="none" xmlns="http://www.w3.org/2000/svg">
<path d="M1.24976 13.2479H1.99976V3.76795C1.99978 3.5318 2.07411 3.30165 2.21222 3.1101C2.35033 2.91856 2.54521 2.77532 2.76926 2.7007L8.76925 0.701201C8.93835 0.644881 9.1184 0.629542 9.29459 0.656448C9.47077 0.683354 9.63804 0.751734 9.78262 0.855956C9.9272 0.960178 10.0449 1.09726 10.1262 1.2559C10.2074 1.41455 10.2497 1.59022 10.2498 1.76845V13.2479H10.9998V6.49045C10.9998 6.43499 11.0121 6.38023 11.0359 6.33011C11.0596 6.27999 11.0942 6.23577 11.1371 6.20062C11.18 6.16547 11.2301 6.14027 11.2839 6.12684C11.3378 6.11341 11.3939 6.11208 11.4483 6.12295L13.0953 6.45295C13.3502 6.50391 13.5796 6.64158 13.7445 6.84258C13.9094 7.04357 13.9996 7.29547 13.9998 7.55545V13.2479H14.7498C14.9487 13.2479 15.1394 13.327 15.2801 13.4676C15.4207 13.6083 15.4998 13.799 15.4998 13.9979C15.4998 14.1969 15.4207 14.3876 15.2801 14.5283C15.1394 14.6689 14.9487 14.7479 14.7498 14.7479H1.24976C1.05084 14.7479 0.860078 14.6689 0.719426 14.5283C0.578773 14.3876 0.499756 14.1969 0.499756 13.9979C0.499756 13.799 0.578773 13.6083 0.719426 13.4676C0.860078 13.327 1.05084 13.2479 1.24976 13.2479Z" fill="black"/>
</svg>
