<svg width="19" height="18" viewBox="0 0 19 18" fill="none" xmlns="http://www.w3.org/2000/svg">
<path d="M17.6162 8.33052L1.11359 0.0792214C0.984247 0.0145362 0.838964 -0.0113817 0.695233 0.0045884C0.551502 0.0205585 0.415451 0.0777358 0.303462 0.169236C0.196513 0.258869 0.116687 0.376558 0.0729578 0.509072C0.0292282 0.641586 0.0233289 0.783671 0.0559231 0.919354L2.04374 8.24801H10.5276V9.74825H2.04374L0.0259184 17.0544C-0.00466657 17.1677 -0.00823679 17.2866 0.015495 17.4016C0.0392267 17.5165 0.0895983 17.6243 0.162559 17.7162C0.23552 17.8081 0.329034 17.8817 0.435583 17.9309C0.542132 17.9801 0.658742 18.0036 0.776037 17.9996C0.893462 17.9988 1.00908 17.9706 1.11359 17.917L17.6162 9.66574C17.7391 9.60279 17.8422 9.50715 17.9142 9.38936C17.9862 9.27157 18.0243 9.13619 18.0243 8.99813C18.0243 8.86007 17.9862 8.7247 17.9142 8.6069C17.8422 8.48911 17.7391 8.39347 17.6162 8.33052Z" fill="black"/>
</svg>
