<svg width="15" height="18" viewBox="0 0 15 18" fill="none" xmlns="http://www.w3.org/2000/svg">
<path d="M12.728 12.7279L7.45585 18L2.18374 12.7279C1.14103 11.6852 0.430937 10.3567 0.143259 8.91037C-0.144419 7.46408 0.00323654 5.96497 0.567554 4.60259C1.13187 3.24022 2.08751 2.07578 3.31361 1.25653C4.53972 0.437275 5.98122 0 7.45585 0C8.93047 0 10.372 0.437275 11.5981 1.25653C12.8242 2.07578 13.7798 3.24022 14.3441 4.60259C14.9085 5.96497 15.0561 7.46408 14.7684 8.91037C14.4808 10.3567 13.7707 11.6852 12.728 12.7279ZM7.45585 10.7695C8.3347 10.7695 9.17755 10.4204 9.79899 9.79893C10.4204 9.17748 10.7696 8.33463 10.7696 7.45578C10.7696 6.57693 10.4204 5.73407 9.79899 5.11263C9.17755 4.49119 8.3347 4.14207 7.45585 4.14207C6.577 4.14207 5.73414 4.49119 5.1127 5.11263C4.49126 5.73407 4.14214 6.57693 4.14214 7.45578C4.14214 8.33463 4.49126 9.17748 5.1127 9.79893C5.73414 10.4204 6.577 10.7695 7.45585 10.7695ZM7.45585 9.11263C7.01642 9.11263 6.595 8.93807 6.28427 8.62735C5.97355 8.31663 5.79899 7.8952 5.79899 7.45578C5.79899 7.01635 5.97355 6.59493 6.28427 6.28421C6.595 5.97349 7.01642 5.79893 7.45585 5.79893C7.89527 5.79893 8.3167 5.97349 8.62742 6.28421C8.93814 6.59493 9.1127 7.01635 9.1127 7.45578C9.1127 7.8952 8.93814 8.31663 8.62742 8.62735C8.3167 8.93807 7.89527 9.11263 7.45585 9.11263Z" fill="black"/>
</svg>
