<svg width="16" height="17" viewBox="0 0 16 17" fill="none" xmlns="http://www.w3.org/2000/svg">
<path d="M1.51248 0.465457C2.36648 -0.012543 3.45548 -0.124543 4.49648 0.139457C5.00348 0.267457 5.43648 0.596457 5.69648 1.04946L6.59448 2.61546C6.91454 3.17375 7.00698 3.83397 6.85257 4.4587C6.69815 5.08343 6.30878 5.62456 5.76548 5.96946L4.97548 6.47146C4.64848 6.67846 4.52848 6.99546 4.60348 7.24646C4.87148 8.14446 5.46448 9.14046 6.11648 9.82246C6.31048 10.0265 6.66648 10.0745 7.01448 9.87146L7.45148 9.61646C7.73822 9.44932 8.05537 9.34095 8.38443 9.29768C8.7135 9.2544 9.04788 9.27708 9.36809 9.36439C9.6883 9.4517 9.98791 9.6019 10.2495 9.80622C10.511 10.0105 10.7293 10.2649 10.8915 10.5545L11.6965 11.9895C11.9595 12.4595 12.0025 13.0205 11.8165 13.5255C11.4455 14.5285 10.7305 15.3375 9.85148 15.7425C8.95848 16.1535 7.91348 16.1365 6.96748 15.5055C5.46948 14.5075 3.66448 12.8275 2.02948 10.0255C0.373476 7.18546 -0.0435242 4.76846 0.0034758 2.96646C0.0334758 1.81346 0.643476 0.951457 1.51248 0.465457ZM10.7045 0.0854571C10.5886 0.0210095 10.4518 0.00524251 10.3243 0.0416246C10.1968 0.0780066 10.0889 0.163558 10.0245 0.279457C9.96003 0.395357 9.94426 0.532111 9.98064 0.659636C10.017 0.787161 10.1026 0.89501 10.2185 0.959457L10.6025 1.17346C11.8021 1.83986 12.8225 2.78681 13.5766 3.93336C14.3306 5.07992 14.7958 6.39199 14.9325 7.75746L14.9645 8.07246C14.9683 8.13988 14.9856 8.20584 15.0156 8.26635C15.0456 8.32687 15.0875 8.38069 15.1388 8.42457C15.1901 8.46844 15.2498 8.50147 15.3143 8.52165C15.3787 8.54183 15.4466 8.54875 15.5137 8.54199C15.5809 8.53523 15.6461 8.51494 15.7052 8.48232C15.7643 8.44971 15.8162 8.40546 15.8578 8.35223C15.8993 8.29901 15.9297 8.23792 15.947 8.17265C15.9643 8.10738 15.9682 8.03928 15.9585 7.97246L15.9275 7.65846C15.7749 6.13205 15.255 4.66529 14.4121 3.38358C13.5692 2.10186 12.4285 1.04333 11.0875 0.298457L10.7045 0.0854571ZM9.53248 2.76546C9.60078 2.65183 9.71142 2.56998 9.84007 2.53791C9.96871 2.50585 10.1048 2.52619 10.2185 2.59446L10.3425 2.66846C11.1497 3.15241 11.8422 3.80588 12.372 4.5837C12.9019 5.36152 13.2566 6.24513 13.4115 7.17346L13.4555 7.44046C13.4684 7.50612 13.4681 7.57371 13.4544 7.63924C13.4408 7.70476 13.4141 7.76688 13.3761 7.82191C13.338 7.87694 13.2892 7.92376 13.2327 7.9596C13.1762 7.99544 13.113 8.01956 13.047 8.03054C12.981 8.04153 12.9134 8.03914 12.8483 8.02353C12.7832 8.00792 12.722 7.9794 12.6681 7.93966C12.6142 7.89993 12.5689 7.84978 12.5348 7.7922C12.5007 7.73462 12.4785 7.67078 12.4695 7.60446L12.4245 7.33846C12.2938 6.55292 11.994 5.80514 11.546 5.1468C11.0979 4.48846 10.5123 3.93527 9.82948 3.52546L9.70548 3.45146C9.64913 3.41772 9.59998 3.3732 9.56084 3.32047C9.5217 3.26773 9.49334 3.20779 9.47736 3.14409C9.46139 3.08038 9.45813 3.01416 9.46775 2.94919C9.47738 2.88422 9.49871 2.82179 9.53248 2.76546Z" fill="black"/>
</svg>
