<svg width="11" height="10" viewBox="0 0 11 10" fill="none" xmlns="http://www.w3.org/2000/svg">
<path d="M3.56858 3.07925L5.02455 0.194662C5.05251 0.136632 5.0962 0.08762 5.15065 0.0532051C5.2051 0.0187901 5.26812 0.000355512 5.33254 0C5.45453 0 5.57653 0.064665 5.64253 0.194662L7.09849 3.07925L10.3637 3.54324C10.4451 3.55604 10.5196 3.59652 10.5746 3.65785C10.6296 3.71918 10.6618 3.7976 10.6657 3.8799C10.6704 3.93469 10.6626 3.98982 10.643 4.04119C10.6234 4.09256 10.5924 4.13883 10.5524 4.17656L8.2038 6.41384L8.75712 9.56709C8.80912 9.86242 8.51712 10.0937 8.2598 9.96175L5.33254 8.45778L2.40661 9.96175C2.37601 9.97764 2.3432 9.98887 2.30928 9.99508C2.08129 10.0351 1.86396 9.82575 1.90929 9.56709L2.46261 6.41384L0.114671 4.17656C0.078169 4.14203 0.049155 4.10036 0.02943 4.05414C0.00970509 4.00793 -0.000309723 3.95815 7.29784e-06 3.9079C4.19722e-05 3.83686 0.0196477 3.7672 0.0566725 3.70657C0.0829376 3.66262 0.118737 3.62513 0.161428 3.59686C0.20412 3.56859 0.252614 3.55027 0.303333 3.54324L3.56858 3.07925ZM5.33254 7.68447C5.38635 7.68425 5.43942 7.69706 5.4872 7.7218L7.94447 8.98444L7.48182 6.34651C7.47089 6.28584 7.47503 6.22341 7.49386 6.16472C7.51269 6.10602 7.54564 6.05284 7.58981 6.00985L9.52776 4.16323L6.8265 3.77924C6.77056 3.77079 6.71751 3.74891 6.67188 3.71547C6.62625 3.68204 6.58941 3.63804 6.56451 3.58724L5.3332 1.14864L5.33254 1.15064V7.6838V7.68447Z" fill="#FFB800"/>
</svg>
