<svg width="32" height="32" viewBox="0 0 32 32" fill="none" xmlns="http://www.w3.org/2000/svg">
<circle cx="16" cy="16" r="15" fill="white" stroke="url(#paint0_linear_641_2011)" stroke-width="2"/>
<path d="M11.0814 18.6256C11.1896 17.7299 11.557 17.2284 12.2492 16.7143C13.2399 16.018 14.4772 16.4118 14.4772 16.4118V14.0752C14.7781 14.0675 15.079 14.0854 15.3765 14.1285V17.1355C15.3765 17.1355 14.1395 16.7416 13.149 17.4383C12.457 17.952 12.0889 18.4539 11.9811 19.3497C11.9777 19.8361 12.069 20.4719 12.4893 21.0217C12.3854 20.9684 12.2794 20.9076 12.1715 20.8395C11.2455 20.2177 11.0769 19.2849 11.0814 18.6256ZM20.4857 9.75483C19.8043 9.00812 19.5465 8.25421 19.4534 7.72461H20.3106C20.3106 7.72461 20.1397 9.11325 21.3853 10.4789L21.4026 10.4972C21.0669 10.286 20.759 10.0368 20.4857 9.75483ZM24.6151 11.8718V14.8183C24.6151 14.8183 23.5213 14.7755 22.7118 14.5695C21.5814 14.2815 20.8549 13.8397 20.8549 13.8397C20.8549 13.8397 20.353 13.5247 20.3125 13.5028V19.5873C20.3125 19.9261 20.2197 20.7722 19.9368 21.4778C19.5676 22.401 18.9977 23.0069 18.8929 23.1307C18.8929 23.1307 18.1999 23.9498 16.9771 24.5014C15.875 24.999 14.9073 24.9864 14.6181 24.999C14.6181 24.999 12.9453 25.0652 11.4401 24.087C11.1146 23.8714 10.8108 23.6272 10.5326 23.3575L10.5401 23.3629C12.0457 24.3411 13.718 24.2749 13.718 24.2749C14.0077 24.2623 14.9753 24.2749 16.0771 23.7773C17.2987 23.2258 17.9929 22.4067 17.9929 22.4067C18.0966 22.2829 18.669 21.6769 19.0368 20.7535C19.3189 20.0482 19.4124 19.2017 19.4124 18.8629V12.7791C19.453 12.8014 19.9545 13.1164 19.9545 13.1164C19.9545 13.1164 20.6814 13.5586 21.8117 13.8462C22.6216 14.0522 23.7151 14.095 23.7151 14.095V11.7861C24.0892 11.87 24.4082 11.8927 24.6151 11.8718Z" fill="#EE1D52"/>
<path d="M23.7157 11.7861V14.0943C23.7157 14.0943 22.6221 14.0514 21.8123 13.8455C20.682 13.5575 19.9551 13.1157 19.9551 13.1157C19.9551 13.1157 19.4536 12.8007 19.413 12.7784V18.8636C19.413 19.2025 19.3202 20.0489 19.0374 20.7542C18.6681 21.6777 18.0983 22.2836 17.9935 22.4074C17.9935 22.4074 17.3001 23.2265 16.0777 23.7781C14.9759 24.2757 14.0083 24.2631 13.7186 24.2757C13.7186 24.2757 12.0463 24.3419 10.5407 23.3637L10.5332 23.3583C10.3742 23.2043 10.2246 23.0418 10.085 22.8715C9.60455 22.2857 9.31005 21.593 9.23605 21.3954V21.3929C9.11697 21.0494 8.86679 20.2246 8.90098 19.4256C8.96145 18.0161 9.4573 17.151 9.5884 16.9342C9.93561 16.3432 10.3872 15.8144 10.9231 15.3714C11.3959 14.989 11.9319 14.6848 12.509 14.4712C13.1329 14.2205 13.801 14.086 14.4774 14.0752V16.4118C14.4774 16.4118 13.24 16.0194 12.2498 16.7143C11.5575 17.2284 11.1902 17.7299 11.082 18.6256C11.0775 19.2849 11.2461 20.2177 12.1713 20.8399C12.2793 20.9083 12.3852 20.969 12.4892 21.022C12.6507 21.2321 12.8475 21.4152 13.0714 21.5639C13.9752 22.136 14.7325 22.1759 15.7009 21.8044C16.3466 21.556 16.8327 20.9961 17.0581 20.3758C17.1997 19.9884 17.1979 19.5984 17.1979 19.1953V7.72461H19.4517C19.5449 8.25422 19.8026 9.00812 20.484 9.75483C20.7573 10.0368 21.0652 10.286 21.4009 10.4972C21.5001 10.5998 22.0072 11.1071 22.6582 11.4185C22.9948 11.5795 23.3497 11.7029 23.7157 11.7861Z" fill="black"/>
<path d="M8.33871 20.6777V20.6795L8.39464 20.8311C8.38821 20.8135 8.36743 20.7598 8.33871 20.6777Z" fill="#69C9D0"/>
<path d="M12.5088 14.4711C11.9317 14.6847 11.3957 14.9889 10.9228 15.3712C10.3868 15.8152 9.9353 16.3452 9.58853 16.9373C9.45743 17.1534 8.96158 18.0192 8.9011 19.4287C8.86691 20.2277 9.1171 21.0525 9.23617 21.396V21.3985C9.3113 21.5944 9.60468 22.287 10.0851 22.8746C10.2247 23.045 10.3743 23.2075 10.5333 23.3614C10.024 23.0238 9.56975 22.6157 9.18546 22.1502C8.70914 21.5695 8.41539 20.884 8.33876 20.6817C8.33867 20.6802 8.33867 20.6788 8.33876 20.6774V20.6748C8.2193 20.3317 7.96837 19.5065 8.0033 18.7065C8.06378 17.297 8.55964 16.4319 8.69074 16.2151C9.03741 15.6229 9.4889 15.0929 10.025 14.649C10.4978 14.2665 11.0338 13.9623 11.611 13.7489C11.971 13.6057 12.3461 13.5001 12.7297 13.4339C13.3078 13.3372 13.8982 13.3287 14.4791 13.409V14.0751C13.802 14.0857 13.1332 14.2201 12.5088 14.4711Z" fill="#69C9D0"/>
<path d="M19.4532 7.72438H17.1993V19.1954C17.1993 19.5986 17.1993 19.9875 17.0596 20.3759C16.832 20.9959 16.3477 21.5557 15.7024 21.8042C14.7336 22.1772 13.9763 22.1358 13.0729 21.5637C12.8486 21.4157 12.6513 21.2332 12.4891 21.0236C13.2588 21.4171 13.9477 21.4103 14.8012 21.082C15.4462 20.8335 15.9312 20.2736 16.158 19.6534C16.3 19.2659 16.2981 18.876 16.2981 18.4731V7H19.4104C19.4104 7 19.3755 7.28514 19.4532 7.72438ZM23.7153 11.1476V11.7859C23.3499 11.7025 22.9958 11.5792 22.6597 11.4183C22.0087 11.1069 21.5016 10.5996 21.4024 10.497C21.5175 10.5694 21.6369 10.6353 21.76 10.6943C22.5515 11.073 23.331 11.1861 23.7153 11.1476Z" fill="#69C9D0"/>
<defs>
<linearGradient id="paint0_linear_641_2011" x1="16" y1="0" x2="16" y2="32" gradientUnits="userSpaceOnUse">
<stop stop-color="#EE1D52"/>
<stop offset="1"/>
</linearGradient>
</defs>
</svg>
