<svg width="32" height="32" viewBox="0 0 32 32" fill="none" xmlns="http://www.w3.org/2000/svg">
<circle cx="16" cy="16" r="15" fill="white" stroke="#FF0000" stroke-width="2"/>
<path d="M24.6297 11.9581C24.5267 11.5782 24.3261 11.2319 24.0478 10.9535C23.7694 10.6752 23.4231 10.4746 23.0431 10.3716C21.634 10 16 10 16 10C16 10 10.366 10 8.95686 10.3716C8.18543 10.5786 7.57857 11.1867 7.37029 11.9581C7 13.366 7 16.2871 7 16.2871C7 16.2871 7 19.2224 7.37029 20.6161C7.57857 21.3876 8.18671 21.9957 8.95686 22.2027C10.366 22.5743 16 22.5743 16 22.5743C16 22.5743 21.634 22.5743 23.0431 22.2027C23.4231 22.0997 23.7694 21.8991 24.0478 21.6208C24.3261 21.3424 24.5267 20.9961 24.6297 20.6161C25 19.2083 25 16.2871 25 16.2871C25 16.2871 25 13.366 24.6297 11.9581Z" fill="#FF0000"/>
<path d="M14.191 19.0001L18.8762 16.3027L14.191 13.5898V19.0001Z" fill="white"/>
</svg>
