<svg width="32" height="32" viewBox="0 0 32 32" fill="none" xmlns="http://www.w3.org/2000/svg">
<circle cx="16" cy="16" r="15" fill="white" stroke="#2366E8" stroke-width="2"/>
<path d="M16.3675 14.8615V14.524H17.3778V19.2655H16.8003C16.6859 19.2657 16.5762 19.2206 16.4951 19.14C16.414 19.0595 16.3681 18.9501 16.3675 18.8358C15.9458 19.1444 15.4366 19.3113 14.914 19.3105C14.261 19.3105 13.6348 19.0512 13.1729 18.5896C12.7111 18.1281 12.4514 17.502 12.451 16.849C12.4514 16.196 12.7111 15.5699 13.1729 15.1084C13.6348 14.6468 14.261 14.3875 14.914 14.3875C15.4363 14.3869 15.946 14.553 16.3675 14.8615ZM12.1892 13V13.1537C12.1892 13.4402 12.151 13.6743 11.9643 13.9488L11.9418 13.9742C11.8795 14.044 11.819 14.1153 11.7603 14.188L8.518 18.2575H12.1892V18.8335C12.1892 18.8903 12.1781 18.9465 12.1563 18.999C12.1345 19.0515 12.1026 19.0991 12.0625 19.1392C12.0223 19.1794 11.9745 19.2112 11.922 19.2328C11.8696 19.2545 11.8133 19.2656 11.7565 19.2655H7V18.994C7 18.6617 7.0825 18.5133 7.1875 18.3588L10.6427 14.08H7.144V13H12.1892ZM18.6025 19.2655C18.507 19.2655 18.4155 19.2276 18.3479 19.1601C18.2804 19.0925 18.2425 19.001 18.2425 18.9055V13H19.3232V19.2655H18.6025ZM22.5198 14.3575C22.8454 14.3574 23.1678 14.4214 23.4687 14.546C23.7695 14.6705 24.0429 14.853 24.2732 15.0832C24.5036 15.3134 24.6863 15.5867 24.811 15.8874C24.9357 16.1882 24.9999 16.5106 25 16.8362C25.0001 17.1619 24.9361 17.4843 24.8115 17.7852C24.687 18.086 24.5045 18.3594 24.2743 18.5897C24.0441 18.8201 23.7708 19.0028 23.4701 19.1275C23.1693 19.2522 22.8469 19.3164 22.5212 19.3165C21.8636 19.3167 21.2329 19.0557 20.7678 18.5908C20.3026 18.1259 20.0412 17.4954 20.041 16.8377C20.0408 16.1801 20.3018 15.5494 20.7667 15.0843C21.2316 14.6191 21.8621 14.3577 22.5198 14.3575ZM14.9148 18.2972C15.1078 18.3016 15.2997 18.2674 15.4793 18.1966C15.6589 18.1258 15.8225 18.0198 15.9606 17.8848C16.0986 17.7499 16.2083 17.5887 16.2832 17.4107C16.3581 17.2328 16.3967 17.0417 16.3967 16.8486C16.3967 16.6556 16.3581 16.4645 16.2832 16.2865C16.2083 16.1086 16.0986 15.9474 15.9606 15.8124C15.8225 15.6775 15.6589 15.5715 15.4793 15.5007C15.2997 15.4298 15.1078 15.3956 14.9148 15.4C14.5363 15.4086 14.1762 15.565 13.9115 15.8357C13.6469 16.1065 13.4987 16.47 13.4987 16.8486C13.4987 17.2272 13.6469 17.5908 13.9115 17.8615C14.1762 18.1322 14.5363 18.2886 14.9148 18.2972ZM22.5198 18.295C22.9066 18.295 23.2777 18.1413 23.5512 17.8677C23.8248 17.5942 23.9785 17.2231 23.9785 16.8362C23.9785 16.4494 23.8248 16.0783 23.5512 15.8048C23.2777 15.5312 22.9066 15.3775 22.5198 15.3775C22.1329 15.3775 21.7618 15.5312 21.4883 15.8048C21.2147 16.0783 21.061 16.4494 21.061 16.8362C21.061 17.2231 21.2147 17.5942 21.4883 17.8677C21.7618 18.1413 22.1329 18.295 22.5198 18.295Z" fill="#2366E9"/>
</svg>
