<svg width="61" height="62" viewBox="0 0 61 62" fill="none" xmlns="http://www.w3.org/2000/svg">
<path fill-rule="evenodd" clip-rule="evenodd" d="M52.8198 1.00001H7.78283C5.94959 1.00001 4.45215 2.48559 4.45215 4.30042V19.3684C4.45215 21.1866 5.94959 22.672 7.78283 22.672H11.3282V32.0311L20.4904 22.672H40.3614L49.5202 32.0311V22.672H52.8198C54.6496 22.672 56.1472 21.1866 56.1472 19.3684V4.30042C56.1472 2.48559 54.6496 1.00001 52.8198 1.00001Z" fill="#FFF3DA"/>
<path fill-rule="evenodd" clip-rule="evenodd" d="M41.2053 43.4212C38.4762 45.5242 36.709 48.8108 36.709 52.4853V56.9418C36.709 58.9247 38.3447 60.5475 40.3442 60.5475H56.2199C58.2157 60.5475 59.8517 58.9247 59.8517 56.9418V52.4853C59.8517 48.8108 58.0842 45.5242 55.3554 43.4212C54.0512 45.984 51.3742 47.7405 48.2822 47.7405C45.1899 47.7405 42.5093 45.984 41.2053 43.4212Z" fill="#7DD9C2"/>
<path fill-rule="evenodd" clip-rule="evenodd" d="M12.5695 32.0312C8.19758 32.0312 4.64893 35.5478 4.64893 39.8843C4.64893 41.157 4.95323 42.3577 5.49634 43.4213C6.8004 45.9841 9.47742 47.7406 12.5695 47.7406C15.6617 47.7406 18.3388 45.9841 19.6429 43.4213C20.1859 42.3577 20.4902 41.157 20.4902 39.8843C20.4902 35.5478 16.945 32.0312 12.5695 32.0312Z" fill="#FFD0C7"/>
<path fill-rule="evenodd" clip-rule="evenodd" d="M48.2821 32.0312C43.9065 32.0312 40.3613 35.5478 40.3613 39.8843C40.3613 41.157 40.6656 42.3577 41.2052 43.4213C42.5092 45.9841 45.1898 47.7406 48.2821 47.7406C51.3741 47.7406 54.0511 45.9841 55.3553 43.4213C55.8948 42.3577 56.1992 41.157 56.1992 39.8843C56.1992 35.5478 52.6539 32.0312 48.2821 32.0312Z" fill="#FFD0C7"/>
<path fill-rule="evenodd" clip-rule="evenodd" d="M12.5697 47.7405C9.47753 47.7405 6.80051 45.984 5.49645 43.4212C2.76385 45.5242 1 48.8108 1 52.4853V56.9418C1 58.9247 2.63598 60.5475 4.63172 60.5475H20.5076C22.5069 60.5475 24.1394 58.9247 24.1394 56.9418V52.4853C24.1394 48.8108 22.3753 45.5242 19.643 43.4212C18.3389 45.984 15.6618 47.7405 12.5697 47.7405Z" fill="#FF7B79"/>
<path d="M56.1472 19.3684C56.1472 21.1831 54.6496 22.672 52.8198 22.672H49.5202V32.0312L40.3614 22.672H20.4904L11.3282 32.0312V22.672H7.78283C5.94959 22.672 4.45215 21.1866 4.45215 19.3684V4.30054C4.45215 2.48571 5.94959 1.00001 7.78283 1.00001H52.8198C54.6496 1.00001 56.1472 2.48571 56.1472 4.30054V8.49971" stroke="black" stroke-width="2" stroke-miterlimit="10" stroke-linecap="round" stroke-linejoin="round"/>
<path d="M41.2053 43.4212C38.4762 45.5242 36.709 48.8108 36.709 52.4853V56.9418C36.709 58.9247 38.3447 60.5475 40.3442 60.5475H56.2199C58.2157 60.5475 59.8517 58.9247 59.8517 56.9418V52.4853C59.8517 48.8108 58.0842 45.5242 55.3554 43.4212" stroke="black" stroke-width="2" stroke-miterlimit="10" stroke-linecap="round" stroke-linejoin="round"/>
<path d="M47.4378 14.8397H13.1611" stroke="black" stroke-width="2" stroke-miterlimit="10" stroke-linecap="round" stroke-linejoin="round"/>
<path d="M16.7721 7.62134H13.1611M47.4378 7.62134H25.3119" stroke="black" stroke-width="2" stroke-miterlimit="10" stroke-linecap="round" stroke-linejoin="round"/>
<path d="M48.2821 32.0312C43.9065 32.0312 40.3613 35.5478 40.3613 39.8843C40.3613 44.224 43.9065 47.7406 48.2821 47.7406C52.6539 47.7406 56.1992 44.224 56.1992 39.8843C56.1992 35.5478 52.6539 32.0312 48.2821 32.0312Z" stroke="black" stroke-width="2" stroke-miterlimit="10" stroke-linecap="round" stroke-linejoin="round"/>
<path d="M18.0484 60.5476H20.5077C22.5069 60.5476 24.1394 58.9248 24.1394 56.9419V52.4853C24.1394 48.811 22.3753 45.5244 19.643 43.4213M5.49645 43.4213C2.76397 45.5244 1 48.811 1 52.4853V56.9419C1 58.9248 2.6361 60.5476 4.63172 60.5476H7.09102" stroke="black" stroke-width="2" stroke-miterlimit="10" stroke-linecap="round" stroke-linejoin="round"/>
<path d="M12.5695 32.0312C8.19758 32.0312 4.64893 35.5478 4.64893 39.8843C4.64893 44.224 8.19758 47.7406 12.5695 47.7406C16.945 47.7406 20.4902 44.224 20.4902 39.8843C20.4902 35.5478 16.945 32.0312 12.5695 32.0312Z" stroke="black" stroke-width="2" stroke-miterlimit="10" stroke-linecap="round" stroke-linejoin="round"/>
<path d="M56.147 13.9408V13.934" stroke="black" stroke-width="2" stroke-miterlimit="10" stroke-linecap="round" stroke-linejoin="round"/>
<path d="M12.563 60.5476H12.57" stroke="black" stroke-width="2" stroke-miterlimit="10" stroke-linecap="round" stroke-linejoin="round"/>
</svg>
