<svg width="46" height="62" viewBox="0 0 46 62" fill="none" xmlns="http://www.w3.org/2000/svg">
<path d="M27.7908 41.4745V47.5292L29.8328 55.4677L23.391 58.7503L16.0605 54.3105L17.2556 47.5292V41.4745L27.7908 41.4745Z" fill="#ECBD83"/>
<path d="M21.1914 61.0918H3.33008C1.99199 61.0918 0.908203 60.008 0.908203 58.6699V57.2168C0.908203 51.8669 5.24578 47.5293 10.5957 47.5293H17.2559L21.1914 61.0918Z" fill="#5DC2A7"/>
<path d="M44.1387 57.2168V58.6699C44.1387 60.008 43.0549 61.0918 41.7168 61.0918H23.8555L27.791 47.5293H34.4512C39.8011 47.5293 44.1387 51.8669 44.1387 57.2168Z" fill="#5DC2A7"/>
<path d="M44.1387 57.2168V58.6699C44.1387 60.008 43.0549 61.0918 41.7168 61.0918H38.084C39.4221 61.0918 40.5059 60.008 40.5059 58.6699V57.2168C40.5059 51.8669 36.1683 47.5293 30.8184 47.5293H34.4512C39.8011 47.5293 44.1387 51.8669 44.1387 57.2168Z" fill="#FBA800"/>
<path d="M27.2259 58.1653L23.8555 61.0918H21.1914L17.3567 58.125L16.7715 51.9492H26.2773L27.2259 58.1653Z" fill="#FCF1F2"/>
<path d="M32.7522 56.1148L27.2461 61.0918H23.8555L27.791 47.5293H34.4512L30.2952 53.2449C29.9574 53.7075 30.1766 54.365 30.7239 54.5334L32.5246 55.0868C32.9738 55.2248 33.101 55.8 32.7522 56.1148Z" fill="#FFE07D"/>
<path d="M34.4512 47.5293L34.0491 48.0815C33.038 47.7243 31.9506 47.5293 30.8184 47.5293H34.4512Z" fill="#FFD064"/>
<path d="M21.1914 61.0918H17.8008L12.2946 56.1148C11.9459 55.8 12.073 55.2248 12.5223 55.0868L14.323 54.5334C14.8703 54.365 15.0895 53.7075 14.7516 53.2449L10.5957 47.5293H17.2559L21.1914 61.0918Z" fill="#FFE07D"/>
<path d="M22.5234 51.9492L19.5627 55.4779L17.2559 47.5293L22.5234 51.9492Z" fill="white"/>
<path d="M27.7908 47.5293L25.4839 55.4767L22.5244 51.9492L27.7908 47.5293Z" fill="white"/>
<path d="M9.1186 15.3625C8.57065 15.0519 7.92038 14.901 7.23099 14.9727C5.74154 15.1275 4.5524 16.3473 4.4307 17.8399C4.38553 18.3936 4.4841 18.92 4.69275 19.3863C4.81771 19.6655 4.71479 19.9899 4.45492 20.1515C3.56173 20.7069 2.9668 21.6968 2.9668 22.8262C2.9668 23.8527 3.45807 24.7646 4.21842 25.3393L9.98914 25.1713L9.1186 15.3625Z" fill="#FCF1F2"/>
<path d="M35.9284 15.3625C36.4764 15.0519 37.1267 14.901 37.816 14.9727C39.3055 15.1275 40.4946 16.3473 40.6163 17.8399C40.6615 18.3936 40.5629 18.92 40.3543 19.3863C40.2293 19.6655 40.3323 19.9899 40.5921 20.1515C41.4854 20.7069 42.0802 21.6968 42.0802 22.8261C42.0802 23.8526 41.589 24.7644 40.8286 25.3391L35.6826 26.1708L35.9284 15.3625Z" fill="#F4E5E0"/>
<path d="M34.3301 24.037H38.75C40.7898 24.037 42.4434 25.6905 42.4434 27.7303C42.4434 29.7702 40.7898 31.4237 38.75 31.4237H34.3301V24.037Z" fill="#ECBD83"/>
<path d="M10.7168 24.037H6.29688C4.25705 24.037 2.60352 25.6905 2.60352 27.7303C2.60352 29.7702 4.25705 31.4237 6.29688 31.4237H10.7168V24.037Z" fill="#ECBD83"/>
<path d="M15.3548 6.5972C11.1319 9.06497 8.29492 13.6464 8.29492 18.8906V29.0625C8.29492 36.9206 14.6652 43.291 22.5234 43.291C30.3816 43.291 36.752 36.9208 36.752 29.0625V18.8906C36.752 13.5619 33.8227 8.91747 29.4866 6.47949L15.3548 6.5972Z" fill="#F6D190"/>
<path d="M36.752 18.8906V29.0625C36.752 32.9908 35.1596 36.5485 32.5839 39.123C30.0095 41.6986 26.4517 43.291 22.5234 43.291C21.9083 43.291 21.3016 43.2523 20.707 43.176C23.91 42.7679 26.7799 41.2954 28.9511 39.123C31.5268 36.5485 33.1191 32.9908 33.1191 29.0625V18.8906C33.1191 13.5843 30.2129 8.95489 25.9056 6.51001L29.4863 6.47974C33.8227 8.91735 36.752 13.5625 36.752 18.8906Z" fill="#ECBD83"/>
<path d="M28.8203 31.4237C26.7805 31.4237 25.127 29.7702 25.127 27.7303C25.127 25.6905 26.7805 24.037 28.8203 24.037C30.8601 24.037 32.5137 25.6905 32.5137 27.7303C32.5137 29.7702 30.8601 31.4237 28.8203 31.4237Z" fill="#E6FCFF"/>
<path d="M16.2266 31.4237C14.1867 31.4237 12.5332 29.7702 12.5332 27.7303C12.5332 25.6905 14.1867 24.037 16.2266 24.037C18.2664 24.037 19.9199 25.6905 19.9199 27.7303C19.9199 29.7702 18.2664 31.4237 16.2266 31.4237Z" fill="#E6FCFF"/>
<path d="M27.2017 1.97141C26.7906 1.97141 26.3979 2.0506 26.0383 2.19458C25.6146 2.36411 25.1383 2.25477 24.829 1.91934C24.2561 1.29776 23.4355 0.908203 22.5234 0.908203C21.6113 0.908203 20.7907 1.29776 20.2178 1.91934C19.9085 2.25489 19.4322 2.36411 19.0085 2.19458C18.6488 2.05072 18.2562 1.97141 17.8451 1.97141C16.1128 1.97141 14.7085 3.37573 14.7085 5.10798V5.42694C14.7085 7.15918 16.1128 8.56351 17.8451 8.56351C18.2562 8.56351 18.6488 8.48431 19.0085 8.34033C19.4322 8.1708 19.9085 8.28015 20.2178 8.61558C20.7907 9.23715 21.6113 9.62671 22.5234 9.62671C23.4355 9.62671 24.2561 9.23715 24.829 8.61558C25.1383 8.28003 25.6146 8.1708 26.0383 8.34033C26.398 8.48419 26.7906 8.56351 27.2017 8.56351C28.934 8.56351 30.3383 7.15918 30.3383 5.42694V5.10798C30.3383 3.37573 28.9341 1.97141 27.2017 1.97141Z" fill="#FCF1F2"/>
<path d="M30.3389 5.10776V5.42745C30.3389 6.29327 29.9877 7.07675 29.4198 7.64468C28.8518 8.21261 28.0671 8.56378 27.2013 8.56378C26.7908 8.56378 26.3985 8.48507 26.0388 8.34097C25.7797 8.23683 25.5012 8.23804 25.2529 8.33007C26.1272 7.66647 26.7061 6.53909 26.7061 5.42745V5.10776C26.7061 3.99612 26.1272 2.86874 25.2529 2.20515C25.5012 2.29718 25.7797 2.29839 26.0388 2.19425C26.3985 2.05015 26.7908 1.97144 27.2013 1.97144C28.9342 1.97144 30.3389 3.37612 30.3389 5.10776Z" fill="#F4E5E0"/>
<path d="M27.6486 33.9705C27.3254 33.5868 26.7528 33.5372 26.3688 33.8603C24.0945 35.7742 20.9332 35.7752 18.6816 33.863C18.2993 33.5383 17.7261 33.5851 17.4015 33.9674C17.0768 34.3497 17.1236 34.9228 17.5059 35.2476C18.9768 36.4969 20.7439 37.1214 22.5145 37.1214C24.2834 37.1214 26.0559 36.4976 27.5384 35.2502C27.9221 34.9271 27.9714 34.3543 27.6486 33.9705Z" fill="black"/>
<path fill-rule="evenodd" clip-rule="evenodd" d="M34.4512 46.6211H28.6992V42.881C33.0125 40.9457 36.2608 37.0486 37.3034 32.332H38.75C41.2873 32.332 43.3516 30.2677 43.3516 27.7305C43.3516 26.6778 42.9954 25.7072 42.3984 24.931C42.7811 24.3 42.9883 23.5711 42.9883 22.8262C42.9883 21.4987 42.3545 20.2803 41.2805 19.5191C41.487 18.9639 41.57 18.3629 41.5214 17.7661C41.3631 15.8253 39.8442 14.2705 37.9097 14.0693C37.5629 14.0333 37.2189 14.0406 36.8813 14.0906C35.8572 11.0201 33.8601 8.32483 31.12 6.43214C31.2025 6.11063 31.2465 5.77387 31.2465 5.42706V5.1081C31.2465 2.87779 29.4321 1.0632 27.2018 1.0632C26.684 1.0632 26.179 1.16008 25.7008 1.35129C25.6277 1.38059 25.5514 1.36279 25.4968 1.30357C24.733 0.475172 23.6494 0 22.5234 0C21.3974 0 20.3136 0.475172 19.5499 1.30382C19.4954 1.36291 19.419 1.38059 19.3458 1.35129C18.8679 1.16008 18.3629 1.0632 17.845 1.0632C15.6147 1.0632 13.8002 2.87767 13.8002 5.1081V5.42706C13.8002 5.77363 13.8442 6.11027 13.9265 6.43153C11.1847 8.32495 9.18775 11.0198 8.16414 14.0916C7.8275 14.0418 7.4842 14.0332 7.1369 14.0693C5.20231 14.2705 3.68343 15.8251 3.52528 17.766C3.47672 18.3628 3.55967 18.9636 3.76614 19.5191C2.6924 20.2803 2.05859 21.4987 2.05859 22.8262C2.05859 23.5731 2.2653 24.3005 2.6482 24.9313C2.05133 25.7075 1.69531 26.6779 1.69531 27.7305C1.69531 30.2677 3.7596 32.332 6.29688 32.332H7.74346C8.78608 37.0485 12.0345 40.9457 16.3477 42.881V46.6211H10.5957C4.75317 46.6211 0 51.3743 0 57.2168V58.6699C0 60.5062 1.49393 62 3.33008 62H4.68233C5.18402 62 5.59054 61.5934 5.59054 61.0918C5.59054 60.5902 5.18402 60.1836 4.68233 60.1836H3.33008C2.49538 60.1836 1.81641 59.5046 1.81641 58.6699V57.2168C1.81641 52.5282 5.51098 48.6862 10.1417 48.4491L13.9571 53.6953L12.2552 54.2189C11.7359 54.3787 11.3402 54.8075 11.2227 55.3379C11.105 55.8683 11.2823 56.4242 11.6854 56.7886L15.4415 60.1836H8.92061C8.41892 60.1836 8.01241 60.5902 8.01241 61.0918C8.01241 61.5934 8.41892 62 8.92061 62H36.1263C36.628 62 37.0345 61.5934 37.0345 61.0918C37.0345 60.5902 36.628 60.1836 36.1263 60.1836H29.6054L33.3615 56.7886C33.7646 56.4242 33.9419 55.8683 33.8242 55.3379C33.7066 54.8075 33.311 54.3787 32.7916 54.2189L31.0897 53.6953L34.9052 48.4491C39.5359 48.6862 43.2305 52.5282 43.2305 57.2168V58.6699C43.2305 59.5046 42.5515 60.1836 41.7168 60.1836H40.3645C39.8629 60.1836 39.4563 60.5902 39.4563 61.0918C39.4563 61.5934 39.8629 62 40.3645 62H41.7168C43.5529 62 45.0469 60.5062 45.0469 58.6699V57.2168C45.0469 51.3743 40.2937 46.6211 34.4512 46.6211ZM21.8735 60.1836L20.5698 55.6905L22.524 53.3617L24.4774 55.6897L23.1733 60.1836H21.8735ZM21.2443 52.0609L18.9605 50.1448L19.9604 53.5909L21.2443 52.0609ZM25.0866 53.59L23.8035 52.0609L26.0861 50.1455L25.0866 53.59ZM37.59 30.5156H38.75C40.2858 30.5156 41.5352 29.2662 41.5352 27.7305C41.5352 26.1948 40.2858 24.9453 38.75 24.9453H37.6602V26.8223H38.8105C39.3122 26.8223 39.7188 27.2289 39.7188 27.7305C39.7188 28.232 39.3122 28.6387 38.8105 28.6387H37.6602V29.0625C37.6602 29.5527 37.6358 30.0372 37.59 30.5156ZM37.722 15.876C38.7701 15.985 39.6253 16.861 39.711 17.9138C39.7425 18.2987 39.6799 18.6695 39.5252 19.0154C39.2174 19.7032 39.4698 20.5232 40.1125 20.9228C40.776 21.3354 41.172 22.0469 41.172 22.8262C41.172 23.1327 41.1072 23.4336 40.9876 23.7115C40.3246 23.3411 39.5618 23.1289 38.75 23.1289H37.6602V18.8906C37.6602 17.8638 37.5554 16.8527 37.3561 15.8691C37.4768 15.8627 37.5986 15.863 37.722 15.876ZM17.8451 2.87961C16.6164 2.87961 15.6167 3.87936 15.6167 5.1081H15.6169V5.42706C15.6169 6.65592 16.6165 7.65555 17.8452 7.65555C18.131 7.65555 18.4089 7.60227 18.6714 7.49728C18.9158 7.39968 19.1694 7.35209 19.4196 7.35209C19.9652 7.35209 20.4962 7.5778 20.8856 8.00042C21.3126 8.46361 21.8942 8.71875 22.5234 8.71875C23.1525 8.71875 23.7343 8.46361 24.1612 8.0003C24.7292 7.38405 25.598 7.18643 26.3756 7.4974C26.638 7.60239 26.9159 7.65555 27.2017 7.65555C28.4304 7.65555 29.43 6.6558 29.43 5.42706V5.1081C29.43 3.87924 28.4304 2.87961 27.2017 2.87961C26.9159 2.87961 26.638 2.93289 26.3754 3.03788C25.5981 3.34848 24.729 3.1511 24.1612 2.53473C23.7343 2.07155 23.1525 1.81641 22.5234 1.81641C21.8942 1.81641 21.3126 2.07155 20.8855 2.53473C20.3175 3.1511 19.4484 3.34873 18.6712 3.03776C18.4088 2.93277 18.1309 2.87961 17.8451 2.87961ZM4.93445 20.9228C5.57721 20.5232 5.82957 19.7032 5.52187 19.0156C5.36712 18.6695 5.30451 18.2988 5.336 17.9138C5.42173 16.8611 6.27689 15.985 7.32496 15.876C7.44811 15.8632 7.5703 15.8604 7.69091 15.8668C7.49147 16.8509 7.38672 17.8627 7.38672 18.8906V23.1289H6.29688C5.48518 23.1289 4.72229 23.3411 4.05955 23.7115C3.94003 23.4338 3.875 23.1334 3.875 22.8262C3.875 22.0468 4.2711 21.3353 4.93445 20.9228ZM3.51172 27.7305C3.51172 29.2662 4.76104 30.5156 6.29688 30.5156H7.45683C7.41106 30.0372 7.38672 29.5527 7.38672 29.0625V28.6387H6.23633C5.73464 28.6387 5.32812 28.232 5.32812 27.7305C5.32812 27.2289 5.73464 26.8223 6.23633 26.8223H7.38672V24.9453H6.29688C4.76104 24.9453 3.51172 26.1948 3.51172 27.7305ZM9.20312 29.0625V18.8906C9.20312 14.5669 11.2759 10.5599 14.775 8.05612C15.5174 8.92182 16.6179 9.47195 17.8451 9.47195C18.3629 9.47195 18.8679 9.37508 19.3461 9.18387C19.4192 9.15469 19.4955 9.17225 19.5501 9.23146C20.3136 10.06 21.3974 10.5352 22.5234 10.5352C23.6494 10.5352 24.733 10.06 25.497 9.23134C25.5515 9.17225 25.6279 9.15457 25.7011 9.18387C26.179 9.37508 26.684 9.47195 27.2019 9.47195C28.4292 9.47195 29.5297 8.92182 30.2721 8.056C33.7701 10.5597 35.8438 14.5707 35.8438 18.8906V29.0625C35.8438 36.4073 29.8683 42.3828 22.5234 42.3828C15.1786 42.3828 9.20312 36.4073 9.20312 29.0625ZM26.8828 43.5584C25.5016 43.9745 24.0384 44.1992 22.5234 44.1992C21.0084 44.1992 19.5453 43.9745 18.1641 43.5583V47.1057L22.5239 50.7633L26.8828 47.1058V43.5584ZM13.2986 55.7984L14.5897 55.4011C15.1265 55.2359 15.553 54.8191 15.7306 54.2863C15.9082 53.7535 15.8169 53.1643 15.4866 52.7102L12.3792 48.4375H16.5737L19.9822 60.1836H18.1504L13.2986 55.7984ZM30.4573 55.4011C29.9203 55.2358 29.4938 54.8191 29.3163 54.2863C29.1387 53.7535 29.23 53.1644 29.5603 52.7102L32.6678 48.4375H28.4733L25.0648 60.1836H26.8965L31.7482 55.7983L30.4573 55.4011Z" fill="black"/>
<path d="M15.5605 17.6797H29.4863C29.988 17.6797 30.3945 17.2731 30.3945 16.7715C30.3945 16.2699 29.988 15.8633 29.4863 15.8633H15.5605C15.0589 15.8633 14.6523 16.2699 14.6523 16.7715C14.6523 17.2731 15.0589 17.6797 15.5605 17.6797Z" fill="black"/>
<path d="M14.3496 21.3125H30.6973C31.199 21.3125 31.6055 20.9059 31.6055 20.4043C31.6055 19.9027 31.199 19.4961 30.6973 19.4961H14.3496C13.8479 19.4961 13.4414 19.9027 13.4414 20.4043C13.4414 20.9059 13.8479 21.3125 14.3496 21.3125Z" fill="black"/>
<path fill-rule="evenodd" clip-rule="evenodd" d="M20.8008 28.2285C21.968 27.4926 23.0789 27.4926 24.2462 28.2285C24.4953 30.5323 26.4514 32.332 28.8203 32.332C31.3576 32.332 33.4219 30.2677 33.4219 27.7305C33.4219 25.1932 31.3576 23.1289 28.8203 23.1289C26.7892 23.1289 25.0624 24.4522 24.4538 26.2816C23.1758 25.7116 21.8711 25.7116 20.5931 26.2816C19.9845 24.4522 18.2577 23.1289 16.2266 23.1289C13.6893 23.1289 11.625 25.1932 11.625 27.7305C11.625 30.2677 13.6893 32.332 16.2266 32.332C18.5955 32.332 20.5515 30.5323 20.8008 28.2285ZM28.8203 24.9453C30.3561 24.9453 31.6055 26.1948 31.6055 27.7305C31.6055 29.2662 30.3561 30.5156 28.8203 30.5156C27.2845 30.5156 26.0352 29.2662 26.0352 27.7305C26.0352 26.1948 27.2845 24.9453 28.8203 24.9453ZM13.4414 27.7305C13.4414 29.2662 14.6907 30.5156 16.2266 30.5156C17.7624 30.5156 19.0117 29.2662 19.0117 27.7305C19.0117 26.1948 17.7624 24.9453 16.2266 24.9453C14.6907 24.9453 13.4414 26.1948 13.4414 27.7305Z" fill="black"/>
</svg>
