<svg width="58" height="62" viewBox="0 0 58 62" fill="none" xmlns="http://www.w3.org/2000/svg">
<path d="M51.5851 33.8973H52.2929C54.8082 33.8973 56.839 31.8238 56.7696 29.2929C56.7027 26.8536 54.64 24.9404 52.1998 24.9404H48.3175H41.6052H33.7871C31.8797 24.9404 30.6851 22.8782 31.634 21.2236C33.293 18.3309 34.4961 15.1998 35.2013 11.9407L36.272 6.99205C36.8475 4.26829 35.106 1.59369 32.3822 1.01825C29.6584 0.442696 26.9839 2.18427 26.4084 4.90791L25.8898 7.36248C25.1829 10.7074 23.9521 13.9198 22.2427 16.8807L18.8968 22.6758C17.1265 25.7421 13.8547 27.631 10.314 27.631V57.6503H16.1187C18.4632 57.6503 20.7769 58.1832 22.8852 59.209C24.9934 60.2347 27.3072 60.7676 29.6517 60.7676H41.5376H47.1406H48.3175V60.6103C50.2198 60.0934 51.619 58.3552 51.619 56.2892C51.619 54.2233 50.2198 52.485 48.3175 51.9682V51.8109H49.6185C52.0918 51.8109 54.0969 49.8058 54.0969 47.3325C54.0969 44.8592 52.0918 42.8541 49.6185 42.8541H51.585C54.0584 42.8541 56.0634 40.849 56.0634 38.3757C56.0635 35.9022 54.0585 33.8973 51.5851 33.8973Z" fill="#FFDDCE"/>
<path d="M29.478 6.9919L28.4073 11.9405C27.7021 15.1998 26.4988 18.3308 24.84 21.2234C23.891 22.8782 25.0856 24.9403 26.9931 24.9403H33.7869C31.8794 24.9403 30.6848 22.8781 31.6337 21.2234C33.2927 18.3308 34.4959 15.1996 35.201 11.9405L36.2717 6.9919C36.8473 4.26814 35.1057 1.59354 32.3819 1.0181C30.7323 0.669597 29.1016 1.17189 27.9435 2.22662C29.2179 3.39154 29.8608 5.18046 29.478 6.9919Z" fill="#FFCBBE"/>
<path d="M51.5848 33.8973H52.2925C54.8078 33.8973 56.8386 31.8238 56.7693 29.2929C56.7023 26.8536 54.6396 24.9404 52.1994 24.9404H48.3172H45.4056C47.8457 24.9404 49.9085 26.8537 49.9754 29.2929C50.0448 31.8238 48.0139 33.8973 45.4987 33.8973H44.7909C47.2642 33.8973 49.2693 35.9023 49.2693 38.3757C49.2693 40.849 47.2642 42.8541 44.7909 42.8541H42.8243C45.2977 42.8541 47.3028 44.8591 47.3028 47.3325C47.3028 49.8058 45.2977 51.8109 42.8243 51.8109H41.5234V51.9682C43.4257 52.4851 44.8249 54.2233 44.8249 56.2892C44.8249 58.355 43.4257 60.0933 41.5234 60.6103V60.7676H41.5372H47.1403H48.3172V60.6103C50.2194 60.0933 51.6187 58.3552 51.6187 56.2892C51.6187 54.2233 50.2194 52.485 48.3172 51.9682V51.8109H49.6181C52.0914 51.8109 54.0965 49.8058 54.0965 47.3325C54.0965 44.8591 52.0914 42.8541 49.6181 42.8541H51.5846C54.058 42.8541 56.063 40.849 56.063 38.3757C56.0632 35.9022 54.0581 33.8973 51.5848 33.8973Z" fill="#FFCBBE"/>
<path d="M10.8645 61.0918H3.81736C2.21044 61.0918 0.907715 59.789 0.907715 58.1821V26.8375C0.907715 25.2306 2.21044 23.9279 3.81736 23.9279H10.8645C12.4714 23.9279 13.7742 25.2306 13.7742 26.8375V58.1821C13.7742 59.789 12.4714 61.0918 10.8645 61.0918Z" fill="#5DC2A7"/>
<path d="M10.8646 23.9277H10.1593C10.4993 24.404 10.7001 24.9865 10.7001 25.6163V51.466C10.7001 53.0729 9.39736 54.3757 7.79044 54.3757H0.907715V58.1821C0.907715 59.789 2.21044 61.0918 3.81736 61.0918H10.8645C12.4714 61.0918 13.7742 59.789 13.7742 58.1821V26.8375C13.7743 25.2305 12.4716 23.9277 10.8646 23.9277V23.9277Z" fill="#5DC2A7"/>
<path d="M54.9022 34.135C56.5803 33.2027 57.7351 31.3866 57.677 29.2685C57.5978 26.3815 55.1404 24.0328 52.1993 24.0328H47.0806C46.5833 24.0328 46.1497 24.416 46.1348 24.9131C46.1194 25.4274 46.5317 25.8492 47.0425 25.8492H52.1992C54.1658 25.8492 55.8086 27.4054 55.8612 29.3184C55.9161 31.3241 54.335 32.9895 52.2074 32.9895C51.5861 32.9895 39.2554 32.9895 39.8015 32.9895C39.3041 32.9895 38.8705 33.3727 38.8556 33.8698C38.8402 34.3841 39.2525 34.8059 39.7633 34.8059C40.0112 34.8059 51.668 34.8059 51.5086 34.8059C53.4511 34.8059 55.0954 36.3261 55.153 38.2678C55.2129 40.2855 53.5889 41.9462 51.5845 41.9462C49.1227 41.9462 39.4963 41.9462 39.8013 41.9462C39.304 41.9462 38.8704 42.3294 38.8555 42.8265C38.8401 43.3408 39.2524 43.7626 39.7632 43.7626H49.5419C51.4845 43.7626 53.1287 45.2828 53.1863 47.2245C53.2463 49.2422 51.6223 50.9029 49.6178 50.9029H41.0509C40.5536 50.9029 40.1199 51.2861 40.105 51.7832C40.0897 52.2975 40.502 52.7193 41.0128 52.7193C44.1783 52.7437 47.3502 52.6443 48.0756 52.8439C48.0765 52.8441 48.0775 52.8445 48.0786 52.8447C49.628 53.2659 50.7101 54.6823 50.7101 56.2894C50.7101 57.8773 49.6538 59.279 48.1342 59.7184C46.236 59.9648 46.41 59.8148 29.6513 59.8596C27.4574 59.8596 25.2549 59.3523 23.2822 58.3924C21.0633 57.3129 18.5861 56.7423 16.1185 56.7423H14.6825V27.615C16.7748 26.6901 18.5358 25.1175 19.6832 23.1303C21.9807 18.7514 25.2204 14.9228 26.7781 7.55083C27.2518 6.00264 27.0444 3.83385 29.0635 2.5017C30.8567 1.31849 33.1853 1.72912 34.4834 3.26617C35.3281 4.2664 35.6476 5.55278 35.384 6.80065C34.4742 10.2725 34.2326 14.8671 30.8458 20.7722C29.5533 23.0264 31.1542 25.8491 33.8565 25.8491H42.7228C43.2202 25.8491 43.6538 25.4658 43.6687 24.9687C43.6841 24.4544 43.2718 24.0327 42.761 24.0327H33.8319C32.5592 24.0327 31.8225 22.7206 32.4216 21.6758C35.9794 15.4722 36.2546 10.6218 37.1603 7.18028C37.4888 5.62556 37.1922 4.03596 36.3252 2.70453C34.5316 -0.0504701 30.85 -0.82874 28.0942 0.965506C25.2477 2.81885 25.4635 5.77329 25.0013 7.17531C23.5196 14.1877 20.4147 17.8421 18.1105 22.2221C17.2591 23.6967 16.0019 24.8979 14.505 25.6867C14.0154 24.1425 12.5689 23.0202 10.8649 23.0202H3.81784C1.70936 23.0202 0 24.7295 0 26.838V46.806C0 47.3032 0.383141 47.7369 0.88023 47.7519C1.39452 47.7674 1.81641 47.3551 1.81641 46.8442V26.838C1.81641 25.7327 2.7125 24.8366 3.81784 24.8366H10.865C11.9704 24.8366 12.8665 25.7327 12.8665 26.838V58.1823C12.8665 59.2876 11.9704 60.1837 10.865 60.1837H3.81784C2.7125 60.1837 1.81641 59.2876 1.81641 58.1823V51.1637C1.81641 50.6665 1.43327 50.2329 0.936176 50.2178C0.421891 50.2023 0 50.6147 0 51.1256V58.1823C0 60.2908 1.70936 62.0001 3.81784 62.0001H10.865C12.8432 62.0001 14.4745 60.4878 14.6641 58.5587H16.1304C18.3613 58.5587 20.5511 59.096 22.5621 60.0616C24.7619 61.1179 27.2113 61.676 29.6516 61.676C46.2108 61.6246 46.2822 61.7986 48.4375 61.5106C50.2706 61.2655 52.5268 59.1125 52.5268 56.2894C52.5268 54.8543 51.9545 53.52 51.0026 52.538C53.3039 51.9253 55.0047 49.8243 55.0047 47.3327C55.0047 45.815 54.3738 44.4418 53.3604 43.4619C55.4608 42.7265 56.9712 40.7245 56.9712 38.3761C56.9712 36.6562 56.161 35.1218 54.9022 34.135Z" fill="black"/>
</svg>
