<svg width="65" height="62" viewBox="0 0 65 62" fill="none" xmlns="http://www.w3.org/2000/svg">
<path d="M63.3913 23.562C62.8853 22.0043 61.4338 20.9498 59.796 20.9498H41.5082L35.857 3.55726C35.3509 1.99957 33.8995 0.945068 32.2617 0.945068L24.7007 30.4004L32.2617 49.4078L47.0567 60.157C47.7193 60.6383 48.499 60.8789 49.2789 60.8789C50.0588 60.8789 50.8385 60.6382 51.5011 60.157C52.8261 59.1943 53.3805 57.4879 52.8743 55.9304L47.2232 38.5379L62.0183 27.7885C63.3431 26.8259 63.8974 25.1196 63.3913 23.562Z" fill="#5DC2A7"/>
<path d="M28.6665 3.55726L23.0153 20.9498H4.72743C3.0896 20.9498 1.63802 22.0044 1.13206 23.562C0.625983 25.1195 1.18033 26.8259 2.50526 27.7887L17.3003 38.538L11.6491 55.9304C11.1429 57.4881 11.6974 59.1943 13.0223 60.157C13.6849 60.6383 14.4646 60.8789 15.2445 60.8789C16.0244 60.8789 16.8041 60.6382 17.4667 60.157L32.2617 49.4078V0.945068C30.624 0.945068 29.1724 1.9997 28.6665 3.55726Z" fill="#5DC2A7"/>
<path d="M42.7789 37.0935L59.7963 24.7296H38.7618L32.2618 4.72461L25.9609 33.6762L32.2618 44.7346L49.279 57.0985L40.2586 37.0935H42.7789Z" fill="#DB2116"/>
<path d="M25.7614 24.7297H4.72705L21.7443 34.5734V37.0937L15.2442 57.0987L32.2615 37.7254L32.2616 30.4005L25.7614 24.7297Z" fill="#FF3A2F"/>
<path d="M32.2617 33.6764L59.7963 24.7297H38.7618L32.2617 33.6764Z" fill="#EBEBEB"/>
<path d="M32.2616 33.6764L4.72705 24.7297L21.7443 37.0937L32.2616 33.6764Z" fill="white"/>
<path d="M32.2619 4.72461L25.7617 24.7296L32.2619 33.6762V4.72461Z" fill="white"/>
<path d="M32.2617 33.6764L49.279 57.0987L42.7789 37.0937L32.2617 33.6764Z" fill="#EBEBEB"/>
<path d="M32.2619 33.6764L15.2446 57.0987L32.262 44.7348L32.2619 33.6764Z" fill="white"/>
<path d="M32.2616 37.7253L26.0306 42.2523L28.4106 34.9275L22.1797 30.4004H29.8815L32.2616 23.0756L34.6416 30.4004H42.3434L36.1125 34.9275L38.4925 42.2523L32.2616 37.7253Z" fill="#4271DB"/>
<path fill-rule="evenodd" clip-rule="evenodd" d="M59.7961 20.0047C61.8498 20.0047 63.6559 21.3169 64.2904 23.27C64.925 25.223 64.2352 27.3462 62.5737 28.5534L48.3342 38.899L53.7731 55.6384C54.4076 57.5914 53.7177 59.7147 52.0563 60.9218C50.3948 62.129 48.1624 62.1287 46.5012 60.9218L32.2617 50.5762L18.0222 60.9218C16.361 62.1287 14.1286 62.1289 12.4671 60.9218C10.8057 59.7147 10.1159 57.5914 10.7504 55.6384L16.1892 38.899L1.94976 28.5534C0.28836 27.3463 -0.401453 25.223 0.233164 23.27C0.867656 21.3169 2.67372 20.0047 4.72741 20.0047H22.3285L27.7676 3.26521C28.4021 1.31221 30.2081 0 32.2618 0C34.3155 0 36.1216 1.31221 36.7561 3.26521L42.1952 20.0047H59.7961ZM46.6678 37.7734L61.4627 27.0242C62.4595 26.2998 62.8733 25.0259 62.4926 23.8541C62.1119 22.6823 61.0283 21.8949 59.7961 21.8949H41.5085C41.0991 21.8949 40.7362 21.6313 40.6097 21.2419L34.9583 3.84929C34.5776 2.67759 33.494 1.89024 32.2618 1.89024C31.0296 1.89024 29.946 2.67747 29.5653 3.84929L23.914 21.2419C23.7875 21.6313 23.4246 21.8949 23.0151 21.8949H4.72753C3.49535 21.8949 2.41173 22.6822 2.03104 23.8541C1.65034 25.0261 2.06418 26.2998 3.06097 27.0242L17.8559 37.7734C18.1872 38.0141 18.3258 38.4406 18.1993 38.83L12.5482 56.2225C12.1677 57.3944 12.5815 58.6683 13.5783 59.3926C14.5752 60.1169 15.9145 60.1168 16.9114 59.3926L31.7064 48.6435C31.8719 48.5232 32.0669 48.463 32.2618 48.463C32.4568 48.463 32.6517 48.5232 32.8173 48.6435L47.6123 59.3926C48.6092 60.1167 49.9485 60.1168 50.9454 59.3926C51.9422 58.6683 52.3561 57.3944 51.9754 56.2225L46.3244 38.83C46.1978 38.4406 46.3365 38.0141 46.6678 37.7734Z" fill="black"/>
<path fill-rule="evenodd" clip-rule="evenodd" d="M59.7965 23.7845H39.4487L33.1607 4.43256C33.0342 4.04317 32.6713 3.77954 32.2618 3.77954C31.8524 3.77954 31.4895 4.04317 31.363 4.43256L25.0751 23.7845H4.72742C4.31799 23.7845 3.95506 24.0481 3.82854 24.4375C3.70202 24.8269 3.84064 25.2536 4.17194 25.4942L12.6806 31.6761C13.1027 31.983 13.694 31.8895 14.0007 31.4671C14.3076 31.0448 14.2139 30.4538 13.7916 30.1469L10.1106 27.4725L21.7458 31.253L26.355 34.6017L21.9107 36.0458L16.8503 32.369C16.4282 32.0623 15.837 32.1558 15.5302 32.578C15.2233 33.0003 15.3169 33.5913 15.7392 33.8982L20.6338 37.4544L14.346 56.8063C14.2195 57.1957 14.3581 57.6224 14.6894 57.8631C15.0207 58.1036 15.4692 58.1036 15.8003 57.8631L32.2622 45.9029L48.7241 57.8631C48.8897 57.9834 49.0846 58.0435 49.2796 58.0435C49.4745 58.0435 49.6695 57.9833 49.8351 57.8631C50.1664 57.6224 50.305 57.1958 50.1785 56.8063L43.8906 37.4544L60.3524 25.4942C60.6837 25.2535 60.8223 24.8269 60.6958 24.4374C60.5687 24.0481 60.206 23.7845 59.7965 23.7845ZM53.8295 25.6747L42.1942 29.4552H36.4967L39.2435 25.6747H53.8295ZM33.2072 10.6923L33.2071 10.6919H33.2072V10.6923ZM33.2072 10.6923L37.7144 24.5638L34.9678 28.3443L33.2072 22.9258V10.6923ZM31.3168 10.6919V22.9258L29.5563 28.3443L26.8096 24.5638L31.3168 10.6919ZM25.2803 25.6747H10.6943L22.3296 29.4552H28.0271L25.2803 25.6747ZM22.4947 37.8435L26.9389 36.3995L25.1783 41.8179L17.9872 51.7155L22.4947 37.8435ZM19.5167 52.8265L31.3168 44.2532V39.5803L26.7076 42.9291L19.5167 52.8265ZM32.262 36.7802C32.067 36.7802 31.8721 36.8404 31.7065 36.9606L27.8288 39.778L29.3099 35.2196C29.4364 34.8302 29.2978 34.4036 28.9665 34.1629L25.0889 31.3456H29.882C30.2915 31.3456 30.6544 31.082 30.7809 30.6926L32.2621 26.1341L33.7433 30.6926C33.8698 31.082 34.2327 31.3456 34.6422 31.3456H39.4353L35.5577 34.1629C35.2264 34.4036 35.0878 34.8302 35.2143 35.2196L36.6953 39.778L32.8174 36.9606C32.6517 36.8404 32.4568 36.7802 32.262 36.7802ZM33.2071 39.5803V44.2532L45.0073 52.8265L37.8164 42.9291L33.2071 39.5803ZM46.5365 51.7156L39.3453 41.8181L37.5848 36.3996L42.029 37.8436L46.5365 51.7156ZM38.169 34.6019L42.6132 36.0459L54.4134 27.4726L42.7782 31.2531L38.169 34.6019Z" fill="black"/>
</svg>
