<svg width="62" height="49" viewBox="0 0 62 49" fill="none" xmlns="http://www.w3.org/2000/svg">
<path d="M8.65544 0.92952C5.77994 1.09035 3.49902 3.47202 3.49902 6.38631V37.2614H57.5187V6.38631C57.5187 3.36748 55.0717 0.920532 52.0529 0.920532H51.5789" fill="#5DC2A7"/>
<path d="M61.0794 37.2614V40.8644C61.0794 41.9906 60.7847 43.0464 60.2682 43.9608C59.185 45.8784 57.1287 47.1726 54.7717 47.1726H7.22913C3.74484 47.1726 0.920898 44.3486 0.920898 40.8644V37.2614H61.0794Z" fill="#CCCCCC"/>
<path d="M61.0796 37.2614V40.8644C61.0796 41.9906 60.7849 43.0464 60.2684 43.9608C59.6936 44.1339 59.0849 44.2261 58.4548 44.2261H10.9122C7.42796 44.2261 4.60449 41.4022 4.60449 37.9179V37.2614H61.0796Z" fill="#E6E6E6"/>
<path d="M33.1357 42.2172H25.6733C23.9596 42.2172 22.5703 40.8275 22.5703 39.1137V37.2614H36.2388V39.1137C36.2388 40.8275 34.8495 42.2172 33.1357 42.2172Z" fill="white"/>
<path d="M12.6432 20.0112L20.4338 14.9504C20.5871 14.8274 20.8018 14.7971 21.0166 14.7971C21.9371 14.7971 23.1026 15.7786 23.1026 17.0359C23.1026 17.5577 22.8879 18.0175 22.5506 18.2322L17.152 21.7288L22.5506 25.2254C22.8879 25.4401 23.1026 25.9004 23.1026 26.4216C23.1026 27.6794 21.9371 28.6609 21.0166 28.6609C20.8018 28.6609 20.5871 28.6302 20.4338 28.5077L12.6432 23.4468C11.9374 22.9866 11.6924 22.2501 11.6924 21.7288C11.6924 21.2075 11.9374 20.4715 12.6432 20.0112Z" fill="#3E4B5C"/>
<path d="M38.7461 8.17145C38.7461 8.35545 38.7153 8.57021 38.6231 8.75421L27.8263 30.8694C27.6116 31.3292 27.0288 31.6362 26.4465 31.6362C25.4035 31.6362 24.7285 30.7772 24.7285 30.0104C24.7285 29.8264 24.79 29.6117 24.8818 29.4277L35.6478 7.31291C35.8933 6.79117 36.3843 6.54614 36.9363 6.54614C37.7953 6.54614 38.7461 7.18993 38.7461 8.17145Z" fill="#3E4B5C"/>
<path d="M48.3765 23.4468L40.5853 28.5077C40.4321 28.6302 40.2173 28.6609 40.0025 28.6609C39.0825 28.6609 37.917 27.6794 37.917 26.4216C37.917 25.9004 38.1317 25.4401 38.469 25.2254L43.8676 21.7288L38.469 18.2322C38.1317 18.0175 37.917 17.5577 37.917 17.0359C37.917 15.7786 39.0825 14.7971 40.0025 14.7971C40.2173 14.7971 40.4321 14.8274 40.5853 14.9504L48.3765 20.0112C49.0817 20.4715 49.3272 21.2075 49.3272 21.7288C49.3272 22.2501 49.0817 22.9866 48.3765 23.4468Z" fill="#3E4B5C"/>
<path fill-rule="evenodd" clip-rule="evenodd" d="M61.079 36.3404H58.44V6.38675C58.44 2.8651 55.5749 0 52.0533 0L8.65584 0.0085144C8.63881 0.0085144 8.62178 0.00898743 8.60428 0.00993347C5.22548 0.199142 2.57892 2.99991 2.57892 6.38675V36.3404H0.920975C0.412476 36.3404 0 36.7529 0 37.2614V40.8649C0 44.851 3.24257 48.0936 7.22873 48.0936H45.9787C46.4877 48.0936 46.8997 47.6816 46.8997 47.1731C46.8997 46.6646 46.4877 46.2521 45.9787 46.2521H7.22873C4.25815 46.2521 1.84148 43.8355 1.84148 40.8649V38.1824H21.6493V39.1138C21.6493 41.3327 23.4543 43.1378 25.6733 43.1378H33.1352C35.3542 43.1378 37.1592 41.3327 37.1592 39.1138V38.1824H60.1585V40.8649C60.1585 43.8355 57.7419 46.2521 54.7713 46.2521H49.0486C48.5401 46.2521 48.1277 46.6646 48.1277 47.1731C48.1277 47.6816 48.5401 48.0936 49.0486 48.0936H54.7713C58.7574 48.0936 62 44.851 62 40.8649V37.2614C62 36.7529 61.5875 36.3404 61.079 36.3404ZM35.3177 39.1138C35.3177 40.3171 34.3386 41.2963 33.1357 41.2963H25.6733C24.4699 41.2963 23.4908 40.3171 23.4908 39.1138V38.1819H35.3177V39.1138ZM4.42039 6.38675V36.3404H56.5986V6.38675C56.5986 3.88068 54.5594 1.84148 52.0533 1.84148H51.5793L8.6828 1.84999C6.29073 1.99663 4.42039 3.98474 4.42039 6.38675Z" fill="black"/>
<path fill-rule="evenodd" clip-rule="evenodd" d="M18.8455 21.7287L23.0507 24.4529C23.6481 24.8327 24.0232 25.5891 24.0232 26.4216C24.0232 27.2499 23.6784 28.0469 23.0526 28.667C22.4655 29.2484 21.7238 29.5814 21.0167 29.5814C20.5597 29.5814 20.1946 29.4764 19.9032 29.2607L12.1414 24.2187C11.131 23.5598 10.7715 22.5007 10.7715 21.7287C10.7715 20.9572 11.131 19.8981 12.1399 19.2397C12.1402 19.2397 12.1404 19.2396 12.1406 19.2395C12.1409 19.2393 12.1411 19.2392 12.1414 19.2392L19.9032 14.1968C20.1946 13.9811 20.5597 13.8761 21.0167 13.8761C21.7238 13.8761 22.466 14.2096 23.0526 14.7905C23.6784 15.4106 24.0232 16.2081 24.0232 17.0359C24.0232 17.8689 23.6481 18.6252 23.0445 19.0089L18.8455 21.7287ZM20.9382 27.7371C20.9552 27.7385 20.9807 27.7399 21.0167 27.7399C21.4154 27.7399 22.1817 27.1832 22.1817 26.4216C22.1817 26.1728 22.089 26.0266 22.055 26.0016L16.6516 22.5017C16.3896 22.3323 16.2316 22.0409 16.2316 21.7287C16.2316 21.4165 16.3896 21.1256 16.6516 20.9563L22.0502 17.4592C22.089 17.4313 22.1817 17.2847 22.1817 17.0359C22.1817 16.2743 21.4159 15.7176 21.0172 15.7176C20.9812 15.7176 20.9557 15.7195 20.9382 15.7209L20.9358 15.7223L13.1446 20.7832C12.6281 21.1214 12.613 21.6677 12.613 21.7287C12.613 21.7902 12.6281 22.3375 13.1461 22.6753L20.9353 27.7352C20.9358 27.7354 20.9363 27.7358 20.9367 27.7361C20.9372 27.7365 20.9377 27.7368 20.9382 27.7371Z" fill="black"/>
<path d="M39.6662 8.17152C39.6662 6.64839 38.2542 5.62524 36.9359 5.62524C35.9894 5.62524 35.1961 6.10962 34.8196 6.90997L32.8263 11.0049C32.6035 11.4623 32.7936 12.0134 33.251 12.2362C33.708 12.4585 34.259 12.2684 34.4818 11.8114L36.4808 7.70465C36.5116 7.63985 36.5929 7.46672 36.9359 7.46672C37.2982 7.46672 37.8247 7.74155 37.8247 8.17152C37.8247 8.26944 37.8058 8.32951 37.7954 8.35033L26.9986 30.4655C26.9963 30.4703 26.9939 30.475 26.9915 30.4802C26.9532 30.562 26.7323 30.7153 26.4457 30.7153C25.8894 30.7153 25.6491 30.2484 25.6491 30.0129C25.65 29.9911 25.6652 29.9197 25.7096 29.8307L33.3035 14.2314C33.5263 13.774 33.3362 13.2229 32.8788 13.0001C32.4218 12.7778 31.8703 12.968 31.648 13.4249L24.0578 29.0157C23.8965 29.3393 23.8076 29.6922 23.8076 30.0105C23.8076 30.6373 24.0716 31.2711 24.5328 31.7498C25.0342 32.2701 25.7134 32.5568 26.4461 32.5568C27.4045 32.5568 28.2919 32.0393 28.6566 31.2673L39.4462 9.16629C39.6283 8.80254 39.6662 8.42459 39.6662 8.17152Z" fill="black"/>
<path fill-rule="evenodd" clip-rule="evenodd" d="M41.1151 14.1968L48.877 19.2392C49.8873 19.8981 50.2468 20.9572 50.2468 21.7287C50.2468 22.5007 49.8873 23.5598 48.8779 24.2178C48.8777 24.218 48.8775 24.2182 48.8772 24.2184C48.877 24.2186 48.8767 24.2187 48.8765 24.2187L41.1151 29.2607C40.8238 29.4769 40.4586 29.5819 40.0016 29.5819C39.2945 29.5819 38.5523 29.2484 37.9658 28.667C37.34 28.0469 36.9951 27.2499 36.9951 26.4216C36.9951 25.5891 37.3702 24.8327 37.9738 24.4486L42.1728 21.7287L37.9677 19.0051C37.3702 18.6252 36.9951 17.8689 36.9951 17.0359C36.9951 16.2081 37.34 15.4106 37.9658 14.7905C38.5523 14.2096 39.2945 13.8761 40.0016 13.8761C40.4586 13.8761 40.8238 13.9811 41.1151 14.1968ZM40.083 27.7352L47.8727 22.6748C48.3907 22.3371 48.4058 21.7898 48.4058 21.7287C48.4058 21.6673 48.3907 21.12 47.8727 20.7822L40.083 15.7223C40.0825 15.7218 40.0816 15.7209 40.0806 15.7204C40.0636 15.719 40.0381 15.7176 40.0021 15.7176C39.6034 15.7176 38.8371 16.2743 38.8371 17.0359C38.8371 17.2847 38.9303 17.4309 38.9638 17.4559L44.3672 20.9558C44.6292 21.1256 44.7877 21.4165 44.7877 21.7287C44.7877 22.0409 44.6292 22.3318 44.3672 22.5017L38.969 25.9982C38.9303 26.0266 38.8371 26.1728 38.8371 26.4216C38.8371 27.1832 39.6029 27.7399 40.0016 27.7399C40.0376 27.7399 40.0631 27.7385 40.0806 27.7371C40.0816 27.7361 40.0821 27.7357 40.083 27.7352Z" fill="black"/>
</svg>
